# xmcd
#
# Track frame offsets: 
#        150
#        20635
#        41878
#        60149
#        67719
#        93956
#        123210
#        168128
#        188053
#        212376
#        226548
#        248947
#        271844
#        293520
#        313672
#
# Disc length: 4395 seconds
#
# Revision: 0
# Processed by: cddbd v1.5.2PL0 Copyright (c) Steve Scherf et al.
# Submitted via: ExactAudioCopy v1.3
#
DISCID=b511290f
DTITLE=Ronnie Earl And The Broadcasters - Beyond The Blue Door
DYEAR=2019
DGENRE=Blues
TTITLE0=Brand New Me
TTITLE1=Baby How Long
TTITLE2=Drown in my Own Tears
TTITLE3=Alexis' Song
TTITLE4=The Sweetest Man
TTITLE5=It Takes a Lot to Laugh, it Takes a Train to Cry
TTITLE6=A Soul That’s Been Abused
TTITLE7=Why Can't We Live Together
TTITLE8=Blues with a Feeling
TTITLE9=TBone Stomp
TTITLE10=Wolf Song
TTITLE11=Peace of Mind
TTITLE12=Drowning in a Sea of Love
TTITLE13=Bringing Light (to a Dark Time)
TTITLE14=Blues for Charlottesville
EXTD=
EXTT0=
EXTT1=
EXTT2=
EXTT3=
EXTT4=
EXTT5=
EXTT6=
EXTT7=
EXTT8=
EXTT9=
EXTT10=
EXTT11=
EXTT12=
EXTT13=
EXTT14=
PLAYORDER=
